<svg width="825" height="1125" viewBox="0 0 825 1125" fill="none" xmlns="http://www.w3.org/2000/svg">
<g clip-path="url(#clip0_2001_2)">
<rect width="825" height="1125" fill="#C4C4C4"/>
<rect width="825" height="1125" fill="#031E24"/>
<rect x="35" y="35" width="755" height="1054" rx="34" fill="#031E24"/>
<path d="M121 50C159.66 50 191 81.3401 191 120L191 125C191 163.66 159.66 195 121 195L113 195C74.3401 195 43 163.66 43 125L43 120C43 81.3401 74.3401 50 113 50L121 50Z" fill="#031E24"/>
<path d="M119.5 58C154.57 58 183 86.4299 183 121.5V121.5C183 156.57 154.57 185 119.5 185L116.5 185C81.4299 185 53 156.57 53 121.5V121.5C53 86.4299 81.4299 58 116.5 58L119.5 58Z" fill="white"/>
<g filter="url(#filter0_d_2001_2)">
<path d="M148.437 111L143 134.61H152.378L147.486 151.551L171 126.607H159.718L169.504 111H148.437Z" fill="#FDC10D"/>
<path d="M171 126.607L147.486 151.551L164.691 126.607H171Z" fill="#EAA60F"/>
<path d="M169.505 111L159.719 126.607L165.428 111H169.505Z" fill="#EAA60F"/>
<path d="M149.263 125.942L148.766 127.929L145.986 127.848L146.498 125.801L149.263 125.942Z" fill="#FFE67D"/>
<path d="M146.916 124.138L149.832 112.48L152.612 112.561L149.695 124.219L146.916 124.138Z" fill="#FFE67D"/>
</g>
<path d="M586.071 898.051C583.98 902.715 583.686 908.209 584.489 914.043C584.143 915.895 583.742 916.974 583.453 917.556C583.164 917.484 582.84 917.386 582.393 917.244C582.348 917.23 582.298 917.214 582.243 917.197C581.904 917.088 581.412 916.931 580.92 916.798C580.794 915.973 580.702 914.715 580.702 912.814V901.953L571.13 907.086C567.46 909.054 564.753 911.563 562.967 914.495C561.186 917.418 560.537 920.404 560.429 923.008C560.428 923.046 560.426 923.085 560.425 923.123L554.291 928.271C548.083 933.481 545.346 941.22 544.229 947.351C543.652 950.517 543.452 953.547 543.51 956.092C543.561 958.323 543.821 961.084 544.757 963.165C545.671 965.195 547.265 966.828 548.25 967.805C548.827 968.378 549.456 968.969 550.043 969.52L550.048 969.526L550.067 969.543C550.671 970.11 551.26 970.664 551.86 971.25C554.046 973.386 556.05 975.655 557.422 978.373C558.176 988.431 559.85 994.988 564.121 999.217C566.316 1001.39 568.791 1002.52 570.633 1003.31C571.044 1003.49 571.431 1003.65 571.802 1003.8C573.235 1004.4 574.432 1004.91 575.832 1005.71C586.033 1011.57 597.739 1009.29 604.283 1002.16C605.615 1002.19 607.121 1002.21 608.34 1002.19C611.195 1002.14 615.101 1001.91 618.311 1000.7C621.705 999.432 623.884 996.525 625.138 994.53C626.556 992.274 627.706 989.669 628.594 987.301C629.496 984.895 630.211 982.51 630.705 980.575C630.952 979.607 631.156 978.709 631.302 977.941C631.416 977.345 631.594 976.346 631.594 975.419C631.594 974.702 631.513 974.086 631.453 973.694C631.423 973.493 631.39 973.305 631.367 973.172C631.367 973.172 631.367 973.172 631.367 973.172C631.54 972.98 631.817 972.705 632.245 972.349C634.303 970.919 635.734 969.581 636.795 968.19C637.339 967.476 637.702 966.857 637.937 966.44C638.055 966.232 638.111 966.132 638.133 966.093L639.043 964.799L639.218 963.116C640.614 949.674 636.71 936.761 625.324 932.789L619.065 930.606C620.171 928.021 620.987 925.15 621.245 922.223C621.51 919.209 621.206 915.827 619.692 912.605C618.134 909.287 615.486 906.564 611.817 904.73C609.647 903.644 608.289 901.878 607.448 899.816C606.564 897.65 606.402 895.491 606.475 894.45L607.124 885.093L598.135 887.77C592.712 889.386 588.428 892.796 586.071 898.051ZM564.509 940.003C564.509 940.002 564.517 940.001 564.532 939.999C564.516 940.002 564.509 940.003 564.509 940.003ZM565.498 940.348C565.498 940.348 565.497 940.347 565.494 940.343C565.497 940.346 565.498 940.348 565.498 940.348ZM615.136 937.292C615.981 936.229 616.818 934.982 617.592 933.6L616.801 937.694C616.228 940.663 615.475 941.939 615.122 942.38C615.099 942.41 615.078 942.435 615.06 942.456C614.919 942.438 614.665 942.388 614.284 942.244C613.926 942.108 613.567 941.932 613.232 941.743C613.232 941.696 613.233 941.645 613.236 941.589C613.273 940.701 613.689 939.114 615.136 937.292ZM613.276 942.171C613.274 942.173 613.264 942.149 613.255 942.093C613.274 942.141 613.279 942.169 613.276 942.171Z" fill="#A41414" stroke="#031E24" stroke-width="13"/>
<circle cx="687" cy="962" r="91" fill="#031E24"/>
<circle cx="688.5" cy="963.5" r="79" fill="white" stroke="white"/>
<path d="M589.809 899.278C587.98 903.356 587.684 908.388 588.527 914.097C587.51 920.083 585.791 920.55 585.584 920.605C585.236 920.699 584.702 920.701 583.829 920.492C583.406 920.391 582.977 920.259 582.486 920.104C582.434 920.087 582.38 920.07 582.324 920.052C581.909 919.92 581.392 919.755 580.917 919.636C579.554 919.296 579.488 919.13 579.456 919.048C579.453 919.04 579.45 919.033 579.446 919.026C579.152 918.518 578.702 917.032 578.702 912.814V906.966L573.548 909.729C570.28 911.482 568 913.642 566.529 916.056C565.061 918.465 564.517 920.934 564.427 923.131C564.407 923.607 564.409 924.071 564.427 924.52L557.22 930.569C551.781 935.134 549.24 942.07 548.18 947.889C547.641 950.852 547.455 953.679 547.509 956.024C547.558 958.199 547.82 960.439 548.493 961.934C549.153 963.402 550.367 964.687 551.363 965.676C551.907 966.216 552.507 966.78 553.103 967.339L553.129 967.364C553.727 967.926 554.335 968.497 554.956 969.104C557.359 971.452 559.771 974.159 561.373 977.581C562.106 987.947 563.739 993.626 567.232 997.085C569 998.836 571.024 999.786 572.814 1000.55C573.181 1000.71 573.541 1000.86 573.897 1001.01C575.356 1001.62 576.75 1002.2 578.325 1003.11C587.848 1008.57 598.584 1005.95 603.922 999.127C603.928 999.127 603.933 999.128 603.939 999.128C605.467 999.167 607.516 999.219 609.288 999.188C612.121 999.139 615.571 998.903 618.258 997.895C620.684 996.985 622.419 994.81 623.598 992.933C624.866 990.916 625.933 988.518 626.785 986.248C627.644 983.957 628.327 981.677 628.798 979.833C629.034 978.91 629.223 978.073 629.355 977.379C629.47 976.777 629.594 976.03 629.594 975.419C629.594 974.689 629.447 973.869 629.377 973.48C629.365 973.412 629.355 973.357 629.349 973.318C629.279 972.884 629.277 972.697 629.297 972.554L629.298 972.551C629.315 972.426 629.428 971.595 631.434 969.954C633.364 968.624 634.569 967.472 635.409 966.371C635.834 965.813 636.12 965.328 636.324 964.967C636.379 964.87 636.414 964.806 636.444 964.753C636.479 964.689 636.506 964.642 636.544 964.574C636.569 964.531 636.586 964.503 636.598 964.483C636.61 964.464 636.616 964.457 636.615 964.458L637.14 963.712L637.234 962.806C638.585 949.804 634.686 938.883 625.336 935.622L621.514 934.289L620.747 938.263C620.12 941.508 619.228 943.3 618.466 944.253C617.774 945.119 617.146 945.361 616.616 945.436C615.166 945.641 613.272 944.746 611.852 943.799C611.765 943.742 611.167 943.176 611.238 941.464C611.305 939.863 611.997 937.68 613.787 935.426C616.324 932.232 618.801 927.138 619.256 921.96C619.488 919.327 619.21 916.504 617.977 913.88C616.72 911.205 614.574 908.962 611.476 907.413C608.511 905.93 606.719 903.519 605.67 900.949C604.598 898.323 604.38 895.701 604.482 894.242L604.832 889.204L599.991 890.646C595.312 892.039 591.77 894.905 589.809 899.278ZM562.895 933.967L564.552 926.054C564.67 927.031 564.85 927.905 565.024 928.634C565.157 929.194 565.298 929.708 565.402 930.083C565.426 930.17 565.447 930.25 565.467 930.321C565.508 930.475 565.535 930.577 565.552 930.646C565.599 931.226 565.761 931.688 565.83 931.882C565.942 932.193 566.077 932.494 566.194 932.742C566.366 933.104 566.592 933.544 566.809 933.968C566.879 934.105 566.949 934.24 567.015 934.37C567.613 935.544 568.223 936.812 568.615 938.076C569.018 939.377 569.072 940.314 568.923 940.929C568.821 941.348 568.575 941.895 567.474 942.446C566.117 943.124 565.399 943.026 565.094 942.931C564.76 942.827 564.286 942.525 563.797 941.701C562.744 939.929 562.3 936.814 562.895 933.967ZM565.574 930.745C565.573 930.745 565.571 930.734 565.568 930.715C565.572 930.736 565.574 930.746 565.574 930.745Z" fill="#A41414" stroke="white" stroke-width="7"/>
<path d="M582.204 981.792C583.113 981.292 582.844 971.216 582.941 968.623C583.128 967.981 584.282 969.023 584.542 969.22C584.926 969.834 584.665 972.471 584.717 975.394C584.613 978.149 584.367 982.473 586.053 985.133C587.125 986.826 592.294 987.478 593.937 984.83C594.558 983.83 594.346 973.971 594.75 971.877C595.153 969.782 596.545 971.62 596.49 973.078C596.166 975.825 596.206 979.098 595.885 983.306C595.996 986.206 596.54 988.986 597.788 990.331C600.014 991.551 603.025 991.29 605.236 988.615C606.294 986.382 607.209 979.325 607.438 977.548C607.667 975.771 608.443 976.725 609.348 978.544C608.845 981.072 607.541 987.727 607.306 989.666C608.373 991.492 610.906 991.662 613.102 990.908C615.298 990.154 616.389 987.411 617.544 985.02C617.991 982.44 619.422 973.942 618.482 969.387C612.577 963.946 597.606 956.37 595.042 955.495C591.837 954.4 581.278 954.652 579.009 954.567C576.728 954.805 575.712 955.903 574.144 958.766C573.64 960.503 572.186 965.459 571.954 971.618C572.942 975.55 573.318 978.486 574.878 980.168C575.814 981.177 578.97 983.568 582.204 981.792Z" fill="white"/>
<path d="M584.734 990.827C590 993.131 591.101 993.524 593.006 995.368C593.492 997.152 590.735 1000.72 585.016 998.835C582.528 998.015 577.435 995.855 574.678 993.909C571.921 991.962 572.245 987.421 575.609 987.421C580.357 987.421 579.544 988.556 584.734 990.827Z" fill="white"/>
</g>
<defs>
<filter id="filter0_d_2001_2" x="143" y="111" width="30" height="40.5513" filterUnits="userSpaceOnUse" color-interpolation-filters="sRGB">
<feFlood flood-opacity="0" result="BackgroundImageFix"/>
<feColorMatrix in="SourceAlpha" type="matrix" values="0 0 0 0 0 0 0 0 0 0 0 0 0 0 0 0 0 0 127 0" result="hardAlpha"/>
<feOffset dx="2"/>
<feComposite in2="hardAlpha" operator="out"/>
<feColorMatrix type="matrix" values="0 0 0 0 0.075 0 0 0 0 0.018 0 0 0 0 0 0 0 0 0.87 0"/>
<feBlend mode="normal" in2="BackgroundImageFix" result="effect1_dropShadow_2001_2"/>
<feBlend mode="normal" in="SourceGraphic" in2="effect1_dropShadow_2001_2" result="shape"/>
</filter>
<clipPath id="clip0_2001_2">
<rect width="825" height="1125" fill="white"/>
</clipPath>
</defs>
</svg>
